<svg width="100" height="50" viewBox="0 0 100 50" fill="none" xmlns="http://www.w3.org/2000/svg">
<g clip-path="url(#clip0)">
<path d="M70.2043 11.2385C69.4665 10.8372 68.5584 11.0665 68.1611 11.8119C67.4801 13.0734 66.6288 14.2775 65.7775 15.4243C65.664 15.539 65.4937 15.5963 65.3802 15.4816C60.8967 12.672 55.5618 11.6972 50.3972 12.7294C50.227 12.7867 50.1135 12.672 50.0567 12.5C49.8864 11.8119 49.3757 10.0344 49.1486 9.40367C48.7514 7.97018 48.1271 7.39679 46.4812 7.51147C45.2894 7.56881 44.4948 6.76605 44.2678 5.90596C44.0976 5.33257 44.1543 4.70183 44.4381 4.18578C44.7219 3.66972 45.1759 3.26835 45.7434 3.09633C46.765 2.80963 47.8433 3.26835 48.3541 4.24312C48.6946 4.98853 49.6027 5.33257 50.3972 4.93119C51.135 4.58715 51.4755 3.61238 51.0783 2.86697C49.9432 0.573392 47.3893 -0.630736 44.8921 0.114677C43.53 0.516053 42.4517 1.37614 41.7707 2.63761C41.0896 3.89908 40.9194 5.33257 41.3166 6.65137C41.9409 8.83027 43.8706 10.3784 46.0839 10.4931C46.1975 10.4931 46.311 10.6078 46.3677 10.7225L47.1055 13.2454C47.1623 13.4174 47.0488 13.5894 46.9353 13.6468C41.9977 15.539 37.9682 19.2661 35.6413 24.0252C35.5845 24.1399 35.4143 24.2546 35.244 24.1972C33.9387 23.7385 32.6333 23.1651 31.328 22.4197C30.5902 22.0183 29.6821 22.305 29.2849 22.9931C28.8876 23.7385 29.1713 24.656 29.8524 25.0573C34.4494 27.6376 39.4438 28.8417 44.3813 28.8417C54.9943 28.8417 65.2667 23.1651 70.7718 13.1881C71.1691 12.6147 70.9421 11.6972 70.2043 11.2385ZM38.8195 25.344C38.706 25.344 38.6492 25.2867 38.5925 25.172C38.5357 25.0573 38.5357 25 38.5925 24.8853C40.8626 20.6422 44.7219 17.4312 49.3757 16.1124C54.0295 14.7936 58.967 15.4243 63.1101 17.7752C63.1668 17.8326 63.2236 17.8899 63.2803 18.0046C63.2803 18.1193 63.2803 18.1766 63.1668 18.2913C56.7536 24.5413 47.5595 27.2362 38.8195 25.344Z" fill="#70CEE6"/>
<path d="M8.00227 48.2798C8.00227 47.4771 7.32123 46.789 6.52667 46.789H3.34847C3.17821 46.789 3.0647 46.6743 3.0647 46.5023V38.8761C3.0647 38.0161 2.38366 37.328 1.53235 37.328C0.681044 37.328 0 38.0161 0 38.8761V48.2798C0 49.0826 0.681044 49.7706 1.4756 49.7706H6.52667C7.32123 49.7133 8.00227 49.0826 8.00227 48.2798Z" fill="#70CEE6"/>
<path d="M17.9909 37.0986C14.4155 37.0986 11.6345 39.9083 11.6345 43.5206C11.6345 47.133 14.4155 49.9427 17.9909 49.9427C21.5664 49.9427 24.3473 47.133 24.3473 43.5206C24.3473 39.9083 21.5664 37.0986 17.9909 37.0986ZM21.3394 43.5206C21.3394 45.5275 19.9206 46.961 17.9909 46.961C16.0613 46.961 14.6425 45.5275 14.6425 43.5206C14.6425 41.5138 16.0613 40.0803 17.9909 40.0803C19.9206 40.0803 21.3394 41.5138 21.3394 43.5206Z" fill="#70CEE6"/>
<path d="M37.7412 48.2798C37.7412 47.4771 37.0601 46.789 36.2656 46.789H33.0874C32.9171 46.789 32.8036 46.6743 32.8036 46.5023V38.8761C32.8036 38.0161 32.1225 37.328 31.2712 37.328C30.4199 37.328 29.7389 38.0161 29.7389 38.8761V48.2798C29.7389 49.0826 30.4199 49.7706 31.2145 49.7706H36.2656C37.1169 49.7133 37.7412 49.0826 37.7412 48.2798Z" fill="#70CEE6"/>
<path d="M47.7298 37.0986C44.1543 37.0986 41.3734 39.9083 41.3734 43.5206C41.3734 47.133 44.1543 49.9427 47.7298 49.9427C51.3053 49.9427 54.0862 47.133 54.0862 43.5206C54.0862 39.9083 51.3053 37.0986 47.7298 37.0986ZM51.0783 43.5206C51.0783 45.5275 49.6594 46.961 47.7298 46.961C45.8002 46.961 44.3814 45.5275 44.3814 43.5206C44.3814 41.5138 45.8002 40.0803 47.7298 40.0803C49.6594 40.0803 51.0783 41.5138 51.0783 43.5206Z" fill="#70CEE6"/>
<path d="M64.6992 40.0803C65.4937 40.0803 66.2315 40.367 66.7991 40.8257C67.2531 41.2271 67.9909 41.3417 68.5017 40.9977L68.6152 40.9404C69.0125 40.711 69.2395 40.3096 69.2962 39.8509C69.353 39.3922 69.1827 38.9335 68.8422 38.6468C67.7071 37.672 66.2315 37.0986 64.6992 37.0986C61.0669 37.0986 58.3428 39.8509 58.3428 43.5206C58.3428 47.1904 61.0669 49.9427 64.6992 49.9427C66.2315 49.9427 67.6504 49.4266 68.7287 48.5092C69.126 48.2225 69.2962 47.7064 69.2395 47.2477C69.1827 46.789 68.899 46.3303 68.5017 46.0436C67.9341 45.6995 67.2531 45.8142 66.7991 46.2156C66.2315 46.6743 65.4937 46.961 64.6992 46.961C62.6561 46.961 61.3507 45.5849 61.3507 43.5206C61.3507 41.4564 62.6561 40.0803 64.6992 40.0803Z" fill="#70CEE6"/>
<path d="M83.655 48.2798C83.655 47.4771 82.9739 46.789 82.1794 46.789H79.0012C78.8309 46.789 78.7174 46.6743 78.7174 46.5023V38.8761C78.7174 38.0161 78.0364 37.328 77.1851 37.328C76.3338 37.328 75.6527 38.0161 75.6527 38.8761V48.2798C75.6527 49.0826 76.3337 49.7706 77.1283 49.7706H82.1794C82.9739 49.7133 83.655 49.0826 83.655 48.2798Z" fill="#70CEE6"/>
<path d="M93.6436 37.0986C90.0682 37.0986 87.2872 39.9083 87.2872 43.5206C87.2872 47.133 90.0682 49.9427 93.6436 49.9427C97.2191 49.9427 100 47.133 100 43.5206C100 39.9083 97.2191 37.0986 93.6436 37.0986ZM96.9921 43.5206C96.9921 45.5275 95.5733 46.961 93.6436 46.961C91.714 46.961 90.2952 45.5275 90.2952 43.5206C90.2952 41.5138 91.714 40.0803 93.6436 40.0803C95.5733 40.0803 96.9921 41.5138 96.9921 43.5206Z" fill="#70CEE6"/>
</g>
<defs>
<clipPath id="clip0">
<rect width="100" height="50" fill="white"/>
</clipPath>
</defs>
</svg>
