<svg width="65" height="75" viewBox="0 0 65 75" fill="none" xmlns="http://www.w3.org/2000/svg">
<g clip-path="url(#clip0)">
<path d="M35.0999 72.3232V2.62626C35.0999 1.16162 33.9499 0 32.4999 0C31.0499 0 29.8999 1.16162 29.8999 2.62626V72.3232C29.8999 73.7879 31.0499 74.9495 32.4999 74.9495C33.9499 75 35.0999 73.7879 35.0999 72.3232Z" fill="#70CEE6"/>
<path d="M43.5999 7.02027C42.5999 6.01017 40.8999 6.01017 39.8999 7.02027L32.4999 14.495L25.0999 7.02027C24.0999 6.01017 22.3999 6.01017 21.3999 7.02027C20.3999 8.03037 20.3999 9.74754 21.3999 10.7576L30.5499 20.0001C31.0999 20.5556 31.7999 20.8082 32.4999 20.7576C33.1999 20.8082 33.8999 20.5556 34.4499 20.0001L43.5999 10.7576C44.6499 9.69704 44.6499 8.03037 43.5999 7.02027Z" fill="#70CEE6"/>
<path d="M21.3999 67.98C22.3999 68.9901 24.0999 68.9901 25.0999 67.98L32.4999 60.5053L39.8999 67.98C40.8999 68.9901 42.5999 68.9901 43.5999 67.98C44.5999 66.9699 44.5999 65.2527 43.5999 64.2426L34.4499 55.0002C33.8999 54.4447 33.1999 54.1921 32.4999 54.2426C31.7999 54.1921 31.0999 54.4447 30.5499 55.0002L21.3999 64.2426C20.3499 65.3032 20.3499 66.9699 21.3999 67.98Z" fill="#70CEE6"/>
<path d="M63.6999 52.6262L3.94994 17.7777C2.69994 17.0706 1.09994 17.4747 0.34994 18.7373C-0.35006 19.9999 0.0499395 21.6161 1.29994 22.3737L61.0499 57.2222C62.2999 57.9292 63.8999 57.5252 64.6499 56.2626C65.3499 54.9494 64.9499 53.3333 63.6999 52.6262Z" fill="#70CEE6"/>
<path d="M11.8999 12.5251C10.4999 12.8787 9.64989 14.3433 10.0499 15.7575L12.7499 25.9595L2.64988 28.7373C1.24988 29.0908 0.399885 30.5554 0.799885 31.9696C1.14988 33.3837 2.59988 34.1918 3.99988 33.8383L16.4999 30.4544C17.2499 30.2524 17.7999 29.7474 18.1499 29.1413C18.5499 28.5352 18.6499 27.7777 18.4499 27.0706L15.0999 14.4443C14.7499 12.9797 13.2999 12.1211 11.8999 12.5251Z" fill="#70CEE6"/>
<path d="M53.0999 62.4747C54.4999 62.1212 55.3499 60.6565 54.9499 59.2424L52.1999 48.9899L62.2999 46.2626C63.6999 45.9091 64.5499 44.4444 64.1499 43.0303C63.7999 41.6161 62.3499 40.7576 60.9499 41.1616L48.4499 44.5454C47.6999 44.7475 47.1499 45.2525 46.7999 45.8586C46.3999 46.4646 46.2999 47.2222 46.4999 47.9293L49.8499 60.5555C50.2499 62.0202 51.6999 62.8283 53.0999 62.4747Z" fill="#70CEE6"/>
<path d="M61.0499 17.7782L1.29994 52.6267C0.0499439 53.3338 -0.400056 54.9499 0.349944 56.2631C1.04994 57.5257 2.64994 57.9802 3.94994 57.2226L63.6999 22.3742C64.9499 21.6671 65.3999 20.0509 64.6499 18.7378C63.8999 17.4752 62.2999 17.0711 61.0499 17.7782Z" fill="#70CEE6"/>
<path d="M0.799961 43.0303C0.449961 44.4444 1.24996 45.9091 2.64996 46.2626L12.75 48.9899L10.05 59.1919C9.69996 60.6061 10.5 62.0707 11.9 62.4242C13.3 62.7778 14.75 61.9697 15.1 60.5555L18.45 47.9293C18.65 47.1717 18.5 46.4141 18.15 45.8586C17.8 45.2525 17.25 44.7475 16.5 44.5454L3.99996 41.1616C2.59996 40.7576 1.14996 41.6161 0.799961 43.0303Z" fill="#70CEE6"/>
<path d="M64.1999 31.9699C64.5499 30.5557 63.7499 29.0911 62.3499 28.7376L52.2499 26.0103L54.9499 15.8083C55.2999 14.3941 54.4999 12.9295 53.0999 12.5759C51.6999 12.2224 50.2499 13.0305 49.8999 14.4446L46.5499 27.0709C46.3499 27.8285 46.4999 28.586 46.8499 29.1416C47.1999 29.7477 47.7499 30.2527 48.4999 30.4547L60.9999 33.8386C62.3999 34.1921 63.7999 33.384 64.1999 31.9699Z" fill="#70CEE6"/>
</g>
<defs>
<clipPath id="clip0">
<rect width="65" height="75" fill="white"/>
</clipPath>
</defs>
</svg>
